# xmcd
#
# Track frame offsets:
#	150
#	16180
#	43612
#
# Disc length: 838 seconds
#
# Revision: 2
# Processed by: cddbd v1.5PL3 Copyright (c) Steve Scherf et al.
# Submitted via: EasyCDDAExtractor 7.0.5.1
#
DISCID=18034403
DTITLE=Ian Van Dahl - Secret Love
DYEAR=2002
DGENRE=Eurodance
TTITLE0=Secret Love (C&V radio)
TTITLE1=Secret Love (C&V`s extended)
TTITLE2=Satisfy Me
EXTD=
EXTT0=
EXTT1=
EXTT2=
PLAYORDER=
